<svg xmlns="http://www.w3.org/2000/svg" width="626.14" height="529.25" viewBox="0 0 626.14 529.25"><title>draw-logo</title><text transform="translate(63.45 186.75)" style="font-size:200px;fill:#9b59b6;font-family:Noteworthy-Light, Noteworthy">H<tspan x="138.5" y="0" style="fill:#e67d23;letter-spacing:0.01873779296875em">a</tspan><tspan x="232.5" y="0" style="fill:#3498dc">p</tspan><tspan x="320" y="0" style="fill:#1bbc9c">p</tspan><tspan x="407.5" y="0" style="fill:#e74c3c">y</tspan></text><text transform="translate(0.5 442.5)" style="font-size:200px;stroke:#fff;stroke-miterlimit:10;font-family:Noteworthy-Light, Noteworthy">D<tspan x="124.75" y="0" style="letter-spacing:-0.067490234375em">r</tspan><tspan x="179.25" y="0" style="letter-spacing:0.01873779296875em">a</tspan><tspan x="273.25" y="0" style="letter-spacing:0.00000244140625em">w</tspan></text><path d="M568.41,309.17a119.92,119.92,0,0,0-17.15,4,67,67,0,0,0-13.62,5.71c-4,2.46-7.29,4.5-10.33,6.55-1.92,1.28-4.11,2.72-4.9,3.2-3.14,1.94-9.4,6.14-10.68,7.19-2.09,1.68-6.76,6.72-10.69,11.51-2.62,3.19-8.74,14.12-11.36,20.24a152.94,152.94,0,0,0-5.27,15.5c-.15.49-.58,1.92-1,3.2-.79,2.69-1.12,4.77-1.68,10.66a176.75,176.75,0,0,0-.31,22.67c.17,1.7.37,4.05.44,5.23a46,46,0,0,0,.59,4.74c.25,1.44.73,4.27,1,6.3a82.26,82.26,0,0,0,5.14,17.92,48.21,48.21,0,0,0,4.2,8.63c.95,1.35,5,7.82,5,8s1.28,2,2.83,4.28c4.73,7,6.06,8.51,10.87,12.09a67.06,67.06,0,0,0,10.25,6.59,104.36,104.36,0,0,0,16.35,7.77c10.17,3.68,11.84,4.12,16.47,4.32,2.44.11,8.74.79,14.63,1.59,2.11.29,4,.35,11.72.35h9.2l3.1-.72c1.71-.39,3.88-.85,4.85-1.05a21.83,21.83,0,0,0,2.79-.69c.58-.22,2.4-.82,4.06-1.34s4.29-1.38,5.84-1.92l5.13-1.84c3.76-1.34,10.17-4.61,18.31-9.36a67.71,67.71,0,0,0,10-6.66c1.39-1.11,3.8-3,5.37-4.19a56.45,56.45,0,0,0,7.32-6.72c1-1.09,2-2.29,5.29-6.18,2.38-2.83,3.93-5.39,6.94-11.55a80.66,80.66,0,0,0,3.66-8.82c.5-1.49,1-3,1.16-3.29a115.93,115.93,0,0,0,3.2-12,102.23,102.23,0,0,0,2-22.61c0-7.48-.06-8.16-1.06-12.6-.28-1.12-.61-3-.78-4.14a53,53,0,0,0-3.95-13.59c-.84-2-2-4.86-2.54-6.29a100.86,100.86,0,0,0-7.25-15c-.77-1.18-1.86-2.91-2.44-3.85-1.51-2.52-2.54-3.8-7-8.67-2.23-2.42-4.21-4.61-4.42-4.88a89.71,89.71,0,0,0-8.58-7.55,99.68,99.68,0,0,0-9.17-6.26c-1-.62-2.61-1.55-3.46-2.11-1.88-1.19-6.81-3.94-9.6-5.33a86.85,86.85,0,0,0-18.91-6.49c-7.28-1.71-8-1.79-20.8-2.43C575.55,309,570,309,568.41,309.17Zm14.82,5.46a59.79,59.79,0,0,1,13.66,1.67c2,.46,4.1.95,4.74,1.06,1.59.33,7.83,2.37,10.66,3.49a100.14,100.14,0,0,1,14.22,7.44c1.24.77,2.81,1.72,3.51,2.13s2.19,1.36,3.33,2.11l2.07,1.4-1.06.52c-1.88.91-2.93,1.18-4.11,1.05-2.07-.25-5.89-1.82-9.43-3.9-4.11-2.4-4.56-2.52-9.29-2.36-5.32.19-6.35.5-8.5,2.71s-3.37,5.19-3.9,9.94c-.27,2.46-.54,3.41-1.24,4.19a2.51,2.51,0,0,1-2.42.07c-.19-.19-.31-1-.39-2.67a14.43,14.43,0,0,0-1.49-6.57c-1.74-3.47-2.59-4.69-6.55-9.24-4.76-5.48-6.45-6.32-12-5.87-3.29.27-4.59.56-9.2,2.09l-3.92,1.32-2.61,0a11.21,11.21,0,0,1-7-1.92c-2-1.12-3.79-2.52-3.5-2.69.07-.06,1.55-.64,3.23-1.28a114.09,114.09,0,0,1,17-4.75C570.9,314.26,573.07,314.28,583.23,314.63Zm-35.44,8.14a19,19,0,0,0,2.73,2.28c3,2,4.83,2.81,7.4,3.14,3.41.45,4.63.27,10.14-1.41a28.35,28.35,0,0,1,7.82-1.59c3.26-.19,4,.06,6.18,2.31a76.39,76.39,0,0,1,6.22,7.3,22.42,22.42,0,0,1,2.85,5.91,24.38,24.38,0,0,1,.43,3.58c.15,2.77.35,3.51,1.08,4.34a4.91,4.91,0,0,0,3.57,1.42c4,.29,6-2,6.49-7.5.39-4,1.26-6.45,3-8.2a3.11,3.11,0,0,1,2.29-1.26c.66-.11,2.44-.27,3.95-.34,3.24-.16,3.66-.06,6.59,1.62a39.07,39.07,0,0,0,5.56,2.75,14,14,0,0,0,6.36,1.46c2.26,0,2,.11,6.29-2.25l1.16-.62,1.17.83a71.39,71.39,0,0,1,10.05,9.59c.64.74,1.94,2.23,2.91,3.3a32.89,32.89,0,0,1,3.39,4,27.06,27.06,0,0,1-3.91.14c-6,0-8.28.46-11.28,2.46a16.19,16.19,0,0,0-5.44,6.37,10,10,0,0,0-.7,5.17,43.12,43.12,0,0,0,2.85,7.21,67.58,67.58,0,0,0,5,7.52,9.43,9.43,0,0,1,2.13,4.61c.19,1.18.15,1.51-.43,3.82s-.64,2.75-.77,7.84c-.18,5.88-.35,7-1.4,8.63-1.57,2.52-1.7,3.19-1.88,10.07-.11,5-.15,5.48-.54,6.2-1,1.88-3.31,4.44-4.13,4.55s-1-.09-3.08-2.28a12.73,12.73,0,0,0-3.41-2.83,30.07,30.07,0,0,0-7.46-1.74c-1.22-.18-3.18-.45-4.36-.6-2.67-.39-6.88-.47-8-.14a4.23,4.23,0,0,0-2.4,2.21c-.66,1.28-.95,3.31-1.15,7.92-.17,4.25-.19,4.42-.77,5.76a14.89,14.89,0,0,0-1.24,7l0,3,.64,1.3c1.16,2.4,3.87,4.32,8.66,6.16a22.41,22.41,0,0,1,2.42,1.19,67.16,67.16,0,0,0,10.37,3.77c3.5.88,3.27.66,5.29,4.92,1.84,3.9,1.76,3.47.83,5.31a10.35,10.35,0,0,0-1.38,5.55,13.87,13.87,0,0,0,1.36,6.1,33.59,33.59,0,0,1,1.69,4.65c-.62.44-2.89,1.84-3,1.84a1,1,0,0,0-.42.27c-.93.81-13.28,6.94-15.47,7.67l-2,.66-.43-.41c-1.06-1-1.64-1.12-4.74-1.18s-4.75.14-9.27,1.24a14.37,14.37,0,0,1-6.39.18,18.23,18.23,0,0,1-3.2-1.34c-4-2.07-5.52-2.4-9-1.92a22.69,22.69,0,0,1-7-.15c-.58-.16-1.24-.68-2.64-2.08-2.4-2.4-2.79-3.31-2.59-5.91.15-1.93.15-1.91,2.23-3.39,2.77-1.93,2.84-2.13,3-6.82.14-4.9.27-5.29,3.47-10.05.73-1.11,1.55-2.48,1.82-3,.52-1.17.52-1.36.08-5.7-.6-5.95-.78-6.39-3-7.65-3.73-2.1-6.91-3.26-13.17-4.81a22,22,0,0,1-6.1-2.42,41.4,41.4,0,0,1-4.15-2.38l-.74-.62.08-2.06c.14-2.81.54-4.16,1.67-5.46a42.64,42.64,0,0,1,6.76-5.41c.5-.25,1.78-1,2.83-1.59s2-1.12,2-1.12.86-.46,1.79-1.05a7.93,7.93,0,0,0,3.35-3.17c.41-.82.42-1,.29-4-.14-2.83-.12-3.18.17-3.3a13.84,13.84,0,0,1,2.13-.11,19.11,19.11,0,0,0,5.6-.72,16.15,16.15,0,0,0,4.89-3.62c2.84-3.43,4-5.62,4.36-8.59a7.66,7.66,0,0,0-.08-3.18c-.47-2.36-1.14-3.5-3.24-5.59-4.41-4.4-4.92-5.33-6-11.2a7.49,7.49,0,0,0-.84-2.19,60.41,60.41,0,0,0-3.89-5.56c-.31-.37-.64-.78-.72-.91a29,29,0,0,0-2.52-2.06c-1.31-1-3.12-2.5-4-3.33-2-1.88-3-2.36-5.27-2.77a18.29,18.29,0,0,1-6.2-2.29c-2.17-1.3-2.34-1.57-2.24-3.7s.21-2.3,2-4.8,2.17-4.11,1.51-6.36-2.15-4.42-5.42-8c-2.39-2.62-2.93-3.47-4-6.14a10.18,10.18,0,0,0-2.71-4.15l-.77-.7,2.48-1.24c1.35-.69,2.5-1.26,2.54-1.26A8.65,8.65,0,0,1,547.79,322.77Zm-5.43,5a21.14,21.14,0,0,1,.95,2.69,15.35,15.35,0,0,0,2.33,4.94c.37.47.62.93.54,1.05s0,.13.1.06,1.49,1.37,3,3.5,2.25,4.13,2,5.37a10.51,10.51,0,0,1-1.49,2.52c-1.71,2.32-2.33,3.78-2.47,5.85-.13,2.31.08,3.57.78,4.65,1.47,2.19,6.39,4.71,10.87,5.5,1.45.27,2.21.74,4.2,2.6a36.27,36.27,0,0,0,2.93,2.38A16.79,16.79,0,0,1,571,374c2.09,3,2.19,3.22,2.54,5.43.68,4.22,1.78,6.24,5.42,10,3.38,3.45,3.69,4.09,3.53,6.84-.12,1.9-.41,2.63-1.84,4.74a13.13,13.13,0,0,1-3.27,3.74c-1.73,1.28-2.1,1.38-6,1.53-4.13.18-4.82.41-5.68,1.94-.52.93-.58,1.92-.38,5.95.09,1.67.07,1.8-.37,2.27a40.86,40.86,0,0,1-4.17,2.65c-2,1.18-4.09,2.38-4.57,2.68s-2,1.45-3.43,2.59c-2.62,2.13-4.52,4.13-5,5.27-1,2.35-1.34,7.58-.64,9.11.62,1.32,2.19,2.42,6.49,4.59,3.41,1.72,4.34,2.11,6.24,2.56,5.5,1.33,9.42,2.75,11.66,4.26a5.4,5.4,0,0,0,1.24.7c.31,0,.6,1.41.86,4.07.11,1.22.27,2.71.31,3.29.11,1,.09,1.08-1.19,3.1-3.66,5.7-3.93,6.41-4.16,11.12-.1,1.82-.19,3.55-.19,3.82,0,.42-.28.7-1.5,1.53-3,2.11-3.43,2.69-3.74,5.48a9.84,9.84,0,0,0,1,6.05c.72,1.51,1.53,2.44,4,4.67s5.06,2.5,12.13,1.7c1.63-.17,3.12.21,5.8,1.55,3.31,1.65,4.34,1.92,7.46,1.92H596l3.49-1.1a51.94,51.94,0,0,1,5.12-1.38c1.74-.31,5.56-.39,5-.12a127.92,127.92,0,0,1-13,4c-.58.08-2.28.39-3.78.7s-3.27.66-4,.78a162.66,162.66,0,0,1-17.59-.1,25.15,25.15,0,0,1-2.63-.35s-.51-1-1.05-2.09a13.94,13.94,0,0,0-5.21-5.93c-3-2.19-5.43-3-11.76-4.07a41.12,41.12,0,0,1-8.1-2.21c-5.1-1.74-6.11-2.23-6.63-3.25a30.84,30.84,0,0,1-1.65-5.8c-.85-4.47-2.53-6.8-6.7-9.22a33.36,33.36,0,0,1-7-5c-3.43-3.62-4.91-6.72-4.93-10.3a4,4,0,0,1,.53-2.31c.87-1.59,3-3.12,6.66-4.67a15.35,15.35,0,0,0,4.63-3.16c3.78-3.54,4.81-6.12,5.23-13.13.39-6.38.2-9.59-.75-12.6-.31-1-.8-2.5-1.07-3.41-.58-1.93-1.08-2.77-2.15-3.5-1.33-.93-2.61-1.13-8.52-1.34-7.77-.25-9.79-.45-11-1-1.72-.79-3.6-2.77-5.89-6.22-2.15-3.21-2.67-3.74-4.51-4.55-6-2.64-7.19-3.8-9.05-9.17l-1-2.84,1.46-4.62c2.65-8.42,4.16-12.34,6.64-17.1,2.13-4.15,5.43-9.88,6.82-11.92a101.46,101.46,0,0,1,8.66-10.21c2.37-2.44,2-2.19,10-7.42,2-1.32,8.74-5,11-6,.57-.25,2.33-1.16,3.92-2l2.9-1.59.86.93A8.52,8.52,0,0,1,542.36,327.73Zm115.07,29a88.34,88.34,0,0,1,8.37,15.85c.39,1,1.55,3.86,2.6,6.34a51.41,51.41,0,0,1,3.66,11.66c.91,5.06,1.2,6.63,1.61,8.25s.43,2.17.41,8.92A98.94,98.94,0,0,1,672.26,429a53.94,53.94,0,0,1-2,8.53,107.58,107.58,0,0,1-5.13,14.05l-1.9,4a36.53,36.53,0,0,1-6.55,9.8c-.66.74-1.71,2-2.34,2.79a54.17,54.17,0,0,1-7.72,7.36c-1.06.8-3.23,2.46-4.84,3.7a47.67,47.67,0,0,1-6.34,4.44c-.07,0-.15-.11-.15-.27s-.41-1.53-.91-3.06a11.24,11.24,0,0,1-.93-5.23V472.6l1.06-2c1-1.84,1-2.09,1-3.25s-.13-1.53-1.32-4.07c-1.88-4.07-2.24-4.79-2.94-5.58-.87-1.05-2.25-1.71-4.59-2.27a36.9,36.9,0,0,1-3.67-1.08l-3.54-1.28a25,25,0,0,1-3.1-1.32,32.05,32.05,0,0,0-3-1.36c-4.29-1.66-6.36-3.23-6.75-5.07a16.28,16.28,0,0,1,1.26-8.28c.23-.42.35-1.6.47-4.67.27-6.2.68-8.31,1.68-8.56,1.94-.48,13.45,1.09,16.61,2.27a15.22,15.22,0,0,1,2.71,2.4c2.58,2.63,3.62,3.31,5.13,3.29s2.87-.75,4.67-2.57a14.07,14.07,0,0,0,3.49-5.08c.39-1.12.45-1.78.58-6.66.16-5.53.29-6.75.93-7.64a13.77,13.77,0,0,0,1.59-3.37c.35-1,.43-2,.58-6.53a41.3,41.3,0,0,1,.78-8.43,14.82,14.82,0,0,0,.5-4.57,12.44,12.44,0,0,0-3-6.86,42.84,42.84,0,0,1-5.81-9.71c-1.36-3.19-1.55-4.14-1.13-5.69a11.2,11.2,0,0,1,3.12-4.79c3-2.75,5.58-3.47,12.75-3.52C657.05,356.31,657.12,356.31,657.43,356.73ZM489.2,395.37c1.63,2.22,3.53,3.62,6.94,5.11a21.85,21.85,0,0,1,2.44,1.18,37.38,37.38,0,0,1,2.15,3.07c2,3,4.26,5.52,5.89,6.47,1.82,1.06,2.9,1.31,6.86,1.49,10.56.48,12.65.7,13.31,1.3a3.81,3.81,0,0,1,.66,1.39c.17.6.62,2,1,3.22l.72,2.13v5.91c0,9.09-.43,10.65-3.66,13.87-1.69,1.69-1.92,1.84-5,3.35-5,2.46-7.38,4.59-8.22,7.27-.62,2-.15,6.12.95,8.54a31.61,31.61,0,0,0,5.68,7.7,71.83,71.83,0,0,0,7.54,5.15c2.71,1.63,3.64,3.16,4.49,7.32a20.39,20.39,0,0,0,2.33,6.73c1.1,1.6,1.64,1.84,11.49,5.19a34.24,34.24,0,0,0,6,1.34c4.36.65,5.85,1,7.19,1.55a20.82,20.82,0,0,1,5.37,3.44c1.26,1.21,2.44,2.85,2.21,3.1s-1.85-.07-5.45-.62c-1.06-.15-3.43-.38-5.25-.5-4.51-.29-4.92-.39-15.09-4a93.72,93.72,0,0,1-12.89-5.89L523,488a58.68,58.68,0,0,1-6.1-3.86c-.7-.5-1.86-1.37-2.62-1.89a26.52,26.52,0,0,1-5.6-5.41c-1.9-2.52-5.71-8.23-7.71-11.55-.91-1.51-2.3-3.72-3.12-4.92-1.51-2.27-3.54-6-3.35-6.16a12.16,12.16,0,0,1,1.63-.72,8.35,8.35,0,0,0,4.09-3.23c1.43-2.13,1.33-4.05-.31-7.13-1.24-2.31-1.34-3-.62-4.42.56-1.12,1.87-2,3.95-2.6,2.32-.69,2.92-1.14,3.7-2.79a4.7,4.7,0,0,0,.15-3.72c-.29-.6-1.68-1.9-4.59-4.28a18.15,18.15,0,0,0-2.36-1.53,5.42,5.42,0,0,0-2.93-.79c-2.46-.14-4,.56-7.4,3.27-1.3,1.05-2.23,1.53-2.48,1.3,0-.06-.21-1.75-.37-3.76s-.37-4.88-.5-6.37a170.06,170.06,0,0,1,.39-20.06c.21-2.4.4-4.63.4-4.94,0-.52.1-.43.64.68A20.57,20.57,0,0,0,489.2,395.37Zm8.45,31.15a14.18,14.18,0,0,1,4.4,3.16c2.17,2,2.17,2.25-.14,3-2.85,1-5,2.75-5.77,4.71a9.88,9.88,0,0,0-.53,2.52,3.85,3.85,0,0,0,.41,2.5,10.31,10.31,0,0,0,1.07,1.8c2.24,2.87,1.72,5.33-1.54,7.31-1.82,1.08-1.8,1.08-2.48-.57-.62-1.49-1.93-5.32-2.82-8.25a65,65,0,0,1-1.88-8.6c-.2-1.4-.43-2.77-.49-3-.09-.47,0-.53.64-.66,1-.18,1.55-.51,3.41-1.88C494.82,426.41,496.06,426,497.65,426.52Z" transform="translate(-53.09 -40.69)"/><path d="M613.32,461.13a9.78,9.78,0,0,0-6,2.84c-2.4,2.64-2.56,6.67-.39,11,1.14,2.34,1.88,3.06,5,5a10.44,10.44,0,0,0,5,1.9,18.2,18.2,0,0,0,5.06-1.15c2.92-1.12,4.28-2.9,4.47-5.77.14-2.17-.27-3.78-1.7-6.74-2-4.25-3-5.56-4.9-6.42A13.26,13.26,0,0,0,613.32,461.13Zm4,3.31c1.66.41,2,.87,3.72,4.3s2,4.69,1.91,6.26a2.28,2.28,0,0,1-.65,1.65,8.91,8.91,0,0,1-5.64,2.11c-1,0-1.44-.14-3.68-1.26-2.79-1.38-3.84-2.31-4.79-4.21-.45-.91-.5-1.22-.5-3.13,0-2.45.29-3.34,1.39-4.38,1.34-1.28,3-1.79,5.52-1.65A19.08,19.08,0,0,1,617.37,464.44Z" transform="translate(-53.09 -40.69)"/></svg>